<svg width="512" height="512" viewBox="0 0 512 512" fill="none" xmlns="http://www.w3.org/2000/svg">
<g clip-path="url(#clip0_264_2)">
<rect width="512" height="512" rx="256" fill="black"/>
<path d="M113 512C109.667 512 106.833 511 104.5 509C102.5 506.667 101.5 503.833 101.5 500.5V174C101.5 170.333 102.5 167.5 104.5 165.5C106.833 163.167 109.667 162 113 162H138C142 162 145 163 147 165C149 167 150.167 168.667 150.5 170L256.5 372L363 170C363.667 168.667 364.833 167 366.5 165C368.5 163 371.5 162 375.5 162H400C403.667 162 406.5 163.167 408.5 165.5C410.833 167.5 412 170.333 412 174V500.5C412 503.833 410.833 506.667 408.5 509C406.5 511 403.667 512 400 512H375.5C372.167 512 369.333 511 367 509C365 506.667 364 503.833 364 500.5V254.5L280.5 417.5C279.167 420.833 277.167 423.5 274.5 425.5C271.833 427.167 268.5 428 264.5 428H249C244.667 428 241.167 427.167 238.5 425.5C236.167 423.5 234.167 420.833 232.5 417.5L149 254.5V500.5C149 503.833 147.833 506.667 145.5 509C143.5 511 140.833 512 137.5 512H113Z" fill="#FFB92A"/>
</g>
<defs>
<clipPath id="clip0_264_2">
<rect width="512" height="512" rx="256" fill="white"/>
</clipPath>
</defs>
</svg>
